<?xml version="1.0" encoding="iso-8859-1"?>
<svg fill="#fff" height="40px" width="40px" version="1.1" id="Capa_1" xmlns="http://www.w3.org/2000/svg" xmlns:xlink="http://www.w3.org/1999/xlink"
	 viewBox="0 0 296.672 296.672" xml:space="preserve">
<path d="M296.642,167.874c-2.396-24.726-24.927-28.702-32.33-30.008c-12.04-2.125-23.593-5.038-34.567-8.679
	c1.624-2.954,0.737-6.768-2.26-8.642c-2.907-1.818-6.756-0.916-8.797,1.839l-1.602,2.162c-2.803-1.127-5.578-2.286-8.289-3.516
	l-5.466-2.48c1.816-2.956,1.002-6.897-2.006-8.852c-2.914-1.894-6.835-1.005-8.904,1.788l-1.172,1.582l-12.907-5.857
	c1.618-2.954,0.729-6.763-2.267-8.635c-2.906-1.816-6.753-0.914-8.792,1.84l-0.985,1.329l-13.394-6.078
	c0.967-2.814-0.087-6.077-2.857-7.717c-2.897-1.715-6.652-0.777-8.656,1.929l-0.312,0.422l-17.341-7.869
	c-1.789-0.812-3.883-0.541-5.406,0.7l-27.457,22.359c-8.104,6.598-18.309,10.232-28.735,10.232
	c-13.852,0-26.781-6.172-35.473-16.934c-2.057-2.546-5.092-4.007-8.329-4.007c-5.792,0-10.533,4.571-10.787,10.284l-7.342,60.347
	c-1.075,8.837,2.072,17.623,8.418,23.503c5.08,4.707,11.693,7.299,18.622,7.299h5.754l0,11.719c0,3.559,2.743,6.663,6.3,6.77
	c3.681,0.11,6.7-2.841,6.7-6.497v-11.992h29.31v11.719c0,3.559,2.743,6.663,6.3,6.77c3.681,0.11,6.7-2.841,6.7-6.497v-11.992h29.31
	v11.719c0,3.559,2.743,6.663,6.3,6.77c3.681,0.11,6.7-2.841,6.7-6.497v-11.992h29.309l0,11.719c0,3.559,2.743,6.663,6.3,6.77
	c3.681,0.11,6.7-2.841,6.7-6.497v-11.992h29.31l0,11.719c0,3.559,2.743,6.663,6.3,6.77c3.681,0.11,6.7-2.841,6.7-6.497v-11.992
	h29.31l0,11.719c0,3.559,2.743,6.663,6.3,6.77c3.681,0.11,6.7-2.841,6.7-6.497v-11.992h11.411c15.28,0,27.712-12.432,27.712-27.712
	L296.642,167.874z M268.96,183.213H27.248c-3.642,0-7.117-1.362-9.787-3.835c-3.296-3.053-4.922-7.688-4.349-12.396l6.834-56.176
	c11.007,11.443,26.117,17.915,42.191,17.915c13.408,0,26.528-4.671,36.944-13.152l23.698-19.297l10.383,4.712l-6.425,8.674
	c-2.137,2.885-1.531,6.955,1.354,9.092c1.164,0.862,2.52,1.277,3.864,1.277c1.989,0,3.954-0.91,5.229-2.631l8.087-10.917
	l13.112,5.95l-5.756,7.77c-2.138,2.885-1.531,6.955,1.354,9.092c1.163,0.862,2.52,1.277,3.864,1.277c1.989,0,3.953-0.91,5.228-2.631
	l7.418-10.014l12.844,5.829l-5.559,7.505c-2.137,2.885-1.53,6.955,1.354,9.092c1.163,0.862,2.52,1.277,3.864,1.277
	c1.989,0,3.953-0.91,5.229-2.632l7.221-9.748l7.982,3.622c1.867,0.847,3.767,1.658,5.675,2.459l-5.066,6.84
	c-2.137,2.885-1.53,6.955,1.354,9.092c1.163,0.862,2.52,1.277,3.864,1.277c1.989,0,3.953-0.91,5.229-2.632l7.216-9.741
	c12.747,4.481,26.241,8.015,40.355,10.505c14.205,2.506,20.495,7.771,21.617,18.135C283.507,176.776,276.971,183.213,268.96,183.213
	z"/>
</svg>
